# xmcd CD database file
# Copyright (C) 1993-1998 Ti Kan
#
# Track frame offsets:
# 150
# 16070
# 37885
# 52535
# 66842
# 83027
# 98090
# 113130
# 133800
# 152452
# 168607
# 183987
# 200377
#
# Disc length: 2830 seconds
#
# Revision: 1
# Processed by: cddbd v1.4PL0 Copyright (c) Steve Scherf et al.
# Submitted via: Gronk 1.4
#
DISCID=970b0c0d
DTITLE=Steve Gibbons - Stained Glass
DYEAR=1900
DGENRE=blues
TTITLE0=\tTake It Easy
TTITLE1=You're a Big Girl Now
TTITLE2=The Last Farewell
TTITLE3=Oh What A Thrill
TTITLE4=Grace
TTITLE5=Looking Glass In The Rain
TTITLE6=One Day
TTITLE7=Looking For The Heart Of Saturday Night
TTITLE8=New Leather Shoes
TTITLE9=Stolen Hearts
TTITLE10=Hey Buddy
TTITLE11=Man In The Long Black Coat
TTITLE12=Immaculate Conception
EXTD=
EXTT0=
EXTT1=
EXTT2=
EXTT3=
EXTT4=
EXTT5=
EXTT6=
EXTT7=
EXTT8=
EXTT9=
EXTT10=
EXTT11=
EXTT12=\n\n
PLAYORDER=
